<svg width="48" height="48" viewBox="0 0 48 48" fill="none" xmlns="http://www.w3.org/2000/svg">
<path d="M14 42C12.9 42 11.9587 41.6087 11.176 40.826C10.3933 40.0433 10.0013 39.1013 10 38V12C9.43333 12 8.95867 11.808 8.576 11.424C8.19333 11.04 8.00133 10.5653 8 10C7.99867 9.43467 8.19067 8.96 8.576 8.576C8.96133 8.192 9.436 8 10 8H18C18 7.43333 18.192 6.95867 18.576 6.576C18.96 6.19333 19.4347 6.00133 20 6H28C28.5667 6 29.042 6.192 29.426 6.576C29.81 6.96 30.0013 7.43467 30 8H38C38.5667 8 39.042 8.192 39.426 8.576C39.81 8.96 40.0013 9.43467 40 10C39.9987 10.5653 39.8067 11.0407 39.424 11.426C39.0413 11.8113 38.5667 12.0027 38 12V38C38 39.1 37.6087 40.042 36.826 40.826C36.0433 41.61 35.1013 42.0013 34 42H14ZM20 34C20.5667 34 21.042 33.808 21.426 33.424C21.81 33.04 22.0013 32.5653 22 32V18C22 17.4333 21.808 16.9587 21.424 16.576C21.04 16.1933 20.5653 16.0013 20 16C19.4347 15.9987 18.96 16.1907 18.576 16.576C18.192 16.9613 18 17.436 18 18V32C18 32.5667 18.192 33.042 18.576 33.426C18.96 33.81 19.4347 34.0013 20 34ZM28 34C28.5667 34 29.042 33.808 29.426 33.424C29.81 33.04 30.0013 32.5653 30 32V18C30 17.4333 29.808 16.9587 29.424 16.576C29.04 16.1933 28.5653 16.0013 28 16C27.4347 15.9987 26.96 16.1907 26.576 16.576C26.192 16.9613 26 17.436 26 18V32C26 32.5667 26.192 33.042 26.576 33.426C26.96 33.81 27.4347 34.0013 28 34Z" fill="black"/>
</svg>
