<svg width="48" height="48" viewBox="0 0 48 48" fill="none" xmlns="http://www.w3.org/2000/svg">
<path d="M37.85 6.27399C37.2876 5.7113 36.6199 5.26497 35.8849 4.96052C35.1499 4.65606 34.3621 4.49945 33.5666 4.49963C32.771 4.49982 31.9833 4.6568 31.2485 4.9616C30.5137 5.2664 29.8461 5.71304 29.284 6.27599L10.27 25.316C9.13707 26.4515 8.50056 27.9899 8.5 29.594V36C8.5 36.828 9.172 37.5 10 37.5H16.446C18.052 37.5 19.592 36.86 20.726 35.726L39.726 16.714C40.8594 15.5779 41.4959 14.0387 41.4959 12.434C41.4959 10.8293 40.8594 9.29004 39.726 8.15399L37.85 6.27399ZM8 40.5C7.60218 40.5 7.22064 40.658 6.93934 40.9393C6.65804 41.2206 6.5 41.6022 6.5 42C6.5 42.3978 6.65804 42.7793 6.93934 43.0606C7.22064 43.342 7.60218 43.5 8 43.5H40C40.3978 43.5 40.7794 43.342 41.0607 43.0606C41.342 42.7793 41.5 42.3978 41.5 42C41.5 41.6022 41.342 41.2206 41.0607 40.9393C40.7794 40.658 40.3978 40.5 40 40.5H8Z" fill="black"/>
</svg>
